<?xml version="1.0" encoding="utf-8"?>
<!-- Generator: Adobe Illustrator 27.0.0, SVG Export Plug-In . SVG Version: 6.00 Build 0)  -->
<svg version="1.1" id="Layer_1" xmlns="http://www.w3.org/2000/svg" xmlns:xlink="http://www.w3.org/1999/xlink" x="0px" y="0px"
	 viewBox="0 0 343.78 344.48" style="enable-background:new 0 0 343.78 344.48;" xml:space="preserve">
<style type="text/css">
	.st0{fill:#1C3343;}
	.st1{fill:#357ABC;}
</style>
<g>
	<path class="st0" d="M3.17,94.32c14.71,33.53,48.61,50.47,81.17,46.09c36.65-4.93,64.62-35.54,66.73-71.25c0.47,0,0.94,0,1.42,0
		c30.26,0,60.52,0,90.78,0.02c5.22,0,10.1,1.39,14.67,3.9c0.34,0.19,0.69,0.37,1.03,0.55c0.04,0.02,0.1,0,0.27,0
		c1.38-4.81,2.77-9.65,4.16-14.49c2.15-7.48,4.28-14.97,6.44-22.45c1.78-6.18,7.21-10.35,13.66-10.36c15.62-0.03,31.23-0.02,46.85,0
		c6.19,0.01,11.26,4.91,10.96,11.98c-0.25,6.02-4.85,10.66-11.07,10.67c-12.88,0.01-25.77,0.01-38.65-0.02
		c-1.07,0-1.58,0.2-1.91,1.37c-13.38,47.47-26.8,94.93-40.22,142.39c-2.74,9.69-5.47,19.38-8.2,29.07
		c-0.07,0.23-0.11,0.47-0.13,0.58c20.49,7.77,30.78,21.99,27.1,44.19c-2.43,14.66-15.17,27.83-33.59,29.49
		c4.55,16.71,0.63,30.83-13.33,41.43c-11.68,8.87-27.75,9.26-40.3,1.53c-7.26-4.48-12.38-10.78-15.25-18.82
		c-2.85-7.98-2.79-16.03-0.13-24.12c-14.14,0-28.14,0-42.3,0c0.36,1.47,0.74,2.86,1.05,4.26c4.39,19.88-8.69,39.68-28.68,43.41
		c-20.81,3.89-40.45-10.34-43.07-31.2c-2.31-18.37,9.95-35.82,28.07-39.97c2.96-0.68,5.95-1.02,8.98-1.02
		c47.24-0.01,94.49-0.01,141.73-0.01c6.6,0,11.95-4.37,13.11-10.68c1.29-7.03-4.19-14.12-11.32-14.63
		c-0.68-0.05-1.37-0.05-2.05-0.05c-56.08,0-112.15,0-168.23,0c-15.31,0-27.73-9.74-31.39-24.55c-5.89-23.81-11.81-47.61-17.71-71.42
		c-3.51-14.17-7.04-28.33-10.54-42.5c-1-4.03-1.04-8.11-0.44-12.2C2.9,95.1,3.05,94.75,3.17,94.32z M188.69,121.71
		c2.06-9.38,4.11-18.68,6.17-28.02c-15.08,0-30.08,0-45.12,0c0,9.37,0,18.66,0,28.02C162.71,121.71,175.62,121.71,188.69,121.71z
		 M244,121.79c1.8-6.35,3.62-12.7,5.39-19.07c1.33-4.76-1.95-9.03-6.91-9.04c-7.08-0.01-14.15-0.01-21.23,0
		c-0.43,0-0.86,0.04-1.36,0.06c-2.06,9.34-4.1,18.64-6.18,28.05C223.88,121.79,233.9,121.79,244,121.79z M125.08,146.4
		c-11.68,0-23.29,0-34.97,0c1.85,8.73,3.67,17.34,5.48,25.91c9.9,0,19.68,0,29.49,0C125.08,163.63,125.08,155.02,125.08,146.4z
		 M149.76,146.35c0,8.74,0,17.35,0,26c9.31,0,18.52,0,27.84,0c1.89-8.64,3.79-17.27,5.7-26
		C172.05,146.35,160.94,146.35,149.76,146.35z M202.66,172.26c0.27,0.08,0.36,0.12,0.45,0.13c8.58,0.01,17.17,0,25.75,0.03
		c0.86,0,1.02-0.41,1.21-1.09c1.33-4.83,2.71-9.64,4.06-14.46c0.98-3.48,1.94-6.97,2.93-10.52c-9.66,0-19.16,0-28.73,0
		C206.44,154.98,204.56,163.58,202.66,172.26z M38.09,146.36c2.16,8.71,4.3,17.33,6.44,25.96c8.7,0,17.31,0,26.03,0
		c-1.84-8.7-3.66-17.31-5.48-25.96C56.1,146.36,47.18,146.36,38.09,146.36z M222.83,196.93c-8.61,0-17.05,0-25.57,0
		c-1.8,8.14-3.58,16.24-5.37,24.31c0.65,0.33,1.19,0.2,1.71,0.21c5.46,0.01,10.92-0.05,16.37,0.02c3.85,0.05,6.42-1.73,7.47-5.38
		c0.95-3.31,1.9-6.63,2.84-9.95C221.14,203.11,221.96,200.08,222.83,196.93z M80.93,221.58c-1.77-8.31-3.49-16.43-5.22-24.54
		c-8.44,0-16.72,0-25.12,0c1.68,6.67,3.21,13.31,5.05,19.86c0.78,2.79,3.04,4.56,5.98,4.63C68.01,221.69,74.4,221.58,80.93,221.58z
		 M125.07,221.48c0-8.25,0-16.33,0-24.44c-8.1,0-16.12,0-24.25,0c1.73,8.23,3.43,16.35,5.13,24.44
		C112.43,221.48,118.71,221.48,125.07,221.48z M149.81,221.47c5.76,0,11.35,0,17.02,0c1.8-8.16,3.59-16.26,5.39-24.43
		c-7.58,0-14.97,0-22.41,0C149.81,205.21,149.81,213.29,149.81,221.47z M211.93,307.9c0-6.59-5.29-11.92-11.85-11.93
		c-6.51-0.01-11.93,5.38-11.96,11.88c-0.03,6.6,5.39,12.01,11.98,11.98C206.67,319.81,211.93,314.5,211.93,307.9z M100.65,308
		c0.02-6.63-5.2-11.98-11.75-12.03c-6.58-0.05-12.02,5.32-12.06,11.92c-0.04,6.51,5.34,11.92,11.87,11.94
		C95.29,319.86,100.63,314.57,100.65,308z"/>
	<path class="st1" d="M138.09,64.11c0.13,34.52-27.71,63.36-62.87,63.95c-36.41,0.62-65.33-28.93-65.17-64.32
		C10.2,28.46,38.92-0.22,74.5,0C110.67,0.23,138.32,29.78,138.09,64.11z M64.59,73.53c0,0.74,0,1.28,0,1.81c0,8.68,0,17.37,0,26.05
		c0,2.61,1.08,4.69,3.06,6.35c2.25,1.9,4.93,1.9,7.63,1.8c5.02-0.18,8.33-3.63,8.34-8.65c0-8.54,0-17.08,0-25.61
		c0-0.53,0-1.05,0-1.52c0.62-0.36,1.17-0.23,1.69-0.23c8.64-0.01,17.27,0.01,25.91-0.01c4.78-0.01,8.31-3.51,8.42-8.27
		c0.02-0.78,0.01-1.56,0-2.34c-0.08-4.87-3.59-8.34-8.46-8.34c-8.64-0.01-17.27,0-25.91-0.01c-0.52,0-1.07,0.14-1.65-0.24
		c0-0.49,0-1.02,0-1.55c0-8.64,0.01-17.27-0.01-25.91c-0.01-3.9-2.46-7.11-6.17-8.09c-1.48-0.39-3.01-0.24-4.52-0.23
		c-4.89,0.03-8.33,3.51-8.34,8.43c-0.01,8.64,0,17.27-0.01,25.91c0,0.52,0.15,1.06-0.24,1.68c-0.47,0-1,0-1.52,0
		c-8.68,0-17.37-0.01-26.05,0c-3.61,0.01-6.67,2.21-7.79,5.55c-0.51,1.52-0.4,3.08-0.4,4.64c0,5.37,3.4,8.77,8.77,8.77
		c8.49,0,16.98,0,25.47,0C63.34,73.53,63.87,73.53,64.59,73.53z"/>
</g>
</svg>
