<?xml version="1.0" encoding="utf-8"?>
<!-- Generator: Adobe Illustrator 27.0.0, SVG Export Plug-In . SVG Version: 6.00 Build 0)  -->
<svg version="1.1" id="Layer_1" xmlns="http://www.w3.org/2000/svg" xmlns:xlink="http://www.w3.org/1999/xlink" x="0px" y="0px"
	 viewBox="0 0 563.74 561" style="enable-background:new 0 0 563.74 561;" xml:space="preserve">
<style type="text/css">
	.st0{fill:#FFFFFF;}
</style>
<g>
	<path class="st0" d="M1252.64-27.55c-50.36,0-100.72,0-151.08,0c-46.76-66.53-93.52-133.05-141.51-201.33
		c-2.14,3.09-3.26,5.11-4.76,6.82c-31.67,36.09-63.48,72.07-95.06,108.25c-25,28.63-49.72,57.5-74.56,86.27c-14.5,0-28.99,0-43.49,0
		c1.63-2.87,2.83-6.12,4.96-8.56c51.22-58.41,102.55-116.72,153.82-175.07c13.26-15.09,26.41-30.27,39.55-45.35
		c-2.54-3.81-4.37-6.68-6.33-9.46c-59.22-84.4-118.43-168.81-177.74-253.14c-5.15-7.32-11.02-14.12-16.56-21.16
		c3.05-0.76,6.1-2.18,9.16-2.19c48.07-0.14,96.14-0.1,144.21-0.1c43.85,62.83,87.69,125.66,132.68,190.12
		c2.77-3.62,4.25-5.81,5.98-7.78c34.4-39.19,68.92-78.28,103.23-117.55c18.73-21.44,37.13-43.18,55.69-64.78
		c15.26,0,30.52,0,45.78,0c-46.68,53.29-93.37,106.58-140.04,159.88c-16.97,19.37-33.9,38.78-50.79,58.09
		c57.38,81.83,114.04,162.5,170.53,243.28C1228.72-63.6,1240.55-45.48,1252.64-27.55z M1191.81-59.69
		c-3.29-4.85-5.13-7.68-7.09-10.43c-99.53-139.5-199.39-278.78-298.18-418.8c-11.27-15.97-22.56-23.16-41.77-20.89
		c-13.63,1.61-27.6,0.31-43.38,0.31c4.43,6.38,7.18,10.45,10.04,14.45c36.31,50.81,72.68,101.57,108.96,152.41
		c65.47,91.76,130.86,183.58,196.47,275.24c2.36,3.3,6.65,7.26,10.15,7.37C1147.85-59.34,1168.74-59.69,1191.81-59.69z"/>
</g>
<g>
	<path class="st0" d="M-421.82-542.58c0-78.46,0-156.92,0-236.05c-2.08,0-3.84,0-5.61,0c-22.16,0.02-44.32-0.04-66.49,0.13
		c-3.58,0.03-5-0.78-4.98-4.66c0.13-32.16,0.07-64.32,0.09-96.48c0-1.12,0.19-2.25,0.33-3.79c25.52,0,50.77,0,76.65,0
		c0-2.21,0-3.98,0-5.75c0-10.67,0.27-21.34-0.05-31.99c-0.76-24.98,5.25-48.31,16.83-70.27c12.38-23.47,29.91-42.1,53.58-54.42
		c13.95-7.26,28.93-11.52,44.77-11.63c27.66-0.2,55.32-0.07,82.99-0.07c1.13,0,2.26,0.11,3.62,0.18c0,34.89,0,69.47,0,104.75
		c-1.92,0-3.69,0-5.46,0c-24.66,0-49.35,0.64-73.98-0.24c-14.74-0.53-23.55,11.48-24.11,23.07c-0.74,15.12-0.18,30.3-0.18,45.99
		c34.53,0,68.92,0,103.65,0c0,35.11,0,69.69,0,104.89c-34.27,0-68.64,0-103.66,0c0,79.2,0,157.77,0,236.35
		C-356.49-542.58-389.15-542.58-421.82-542.58z"/>
</g>
<g>
	<path class="st0" d="M311.79,236.91c4.44-5.3,8.22-10.3,12.5-14.84c20.84-22.05,46.29-34.97,76.62-37.59
		c33.43-2.88,64.85,2.83,92.22,23.57c21.99,16.67,34.21,39.59,40.79,65.89c3.98,15.93,5.4,32.17,5.42,48.51
		c0.1,69.58,0.04,139.16,0.04,208.75c0,6.77-0.02,6.79-6.57,6.8c-31.32,0.01-62.64,0.01-93.96,0c-6.53,0-6.53-0.02-6.54-6.74
		c-0.01-60.17,0.23-120.34-0.19-180.51c-0.12-17.66-3.18-35.05-14.04-49.91c-8.97-12.27-21.47-18.15-36.37-19.16
		c-13.41-0.91-26.53,0.31-38.58,6.94c-17.47,9.62-26,25.48-29.35,44.27c-1.67,9.33-2.1,18.98-2.13,28.49
		c-0.19,56.47-0.09,112.94-0.09,169.4c0,7.2-0.01,7.21-7.1,7.21c-29.93,0-59.86,0.01-89.79,0c-6.38,0-6.39-0.03-6.39-6.43
		c0-110.31,0-220.63,0-330.94c0-6.64,0.01-6.66,6.59-6.66c30.24-0.01,60.48,0.09,90.72-0.1c4.7-0.03,6.19,1.44,6.07,6.08
		c-0.27,10.64-0.09,21.29-0.08,31.93C311.58,233.37,311.7,234.85,311.79,236.91z"/>
	<path class="st0" d="M34.33,366.07c0-55.07,0-110.14,0-165.21c0-6.86,0.02-6.87,6.92-6.88c31.62,0,63.25,0.09,94.87-0.1
		c4.74-0.03,6.04,1.51,6.04,6.1c-0.1,110.6-0.07,221.21-0.08,331.81c0,6.09-0.14,6.22-6.24,6.22c-31.78,0.01-63.56,0.01-95.33,0
		c-6.08,0-6.17-0.1-6.17-6.26C34.33,476.52,34.33,421.29,34.33,366.07z"/>
	<path class="st0" d="M150.84,86.89c-0.06,35.17-28.28,63.92-62.68,63.76c-35.77-0.17-63.8-27.98-63.81-63.73
		c-0.01-36.25,27.99-64.06,63.55-63.94C126.45,23.12,151.61,55.13,150.84,86.89z"/>
</g>
</svg>
