<svg version="1.1" id="Layer_1" xmlns="http://www.w3.org/2000/svg" xmlns:xlink="http://www.w3.org/1999/xlink" x="0px" y="0px"
	 viewBox="0 0 607 432" style="enable-background:new 0 0 607 432;" xml:space="preserve">
<style type="text/css">
	.st0{fill:#FFFFFF;}
</style>
<g>
	<path d="M299.18,41.38c-0.15,1.78-0.44,2.99-0.3,4.14c0.12,0.92,0.77,1.78,1.19,2.66c0.74-0.65,1.53-1.24,2.19-1.95
		c0.64-0.68,1.06-2.05,1.72-2.15c2.73-0.41,3.02-1.91,2.26-4.1c16.56-2.82,34.67,8.56,39.7,24.8c1.88,6.05,1.15,4.8,6.56,4.88
		c6.4,0.1,12.82,0.32,19.2-0.06c5.81-0.35,11.21,3.77,11.48,10.37c0.21,5.3,0.27,5.21,6.04,5.32c6.49,0.13,13.09-0.23,19.43,0.86
		c11.64,2,21.43,13.98,21.5,25.88c0.16,27.14,0.07,54.28,0.05,81.42c0,3.41-1.11,4.7-3.77,4.78c-2.76,0.08-4.11-1.35-4.12-4.76
		c-0.04-19.92,0-39.85-0.06-59.77c-0.02-7.62,0.22-15.28-0.5-22.83c-0.95-9.92-9.86-17.5-19.78-17.65
		c-5.08-0.07-10.17,0.11-15.24-0.07c-2.6-0.09-3.4,1.02-3.39,3.37c0.02,7.22,0.03,14.43-0.05,21.65c-0.05,4.57-1.06,8.82-5.76,10.85
		c-1.7,0.74-3.71,1.06-5.59,1.07c-40.86,0.06-81.72-0.04-122.58,0.12c-7.93,0.03-11.93-6.21-11.7-12.13
		c0.27-7.11-0.02-14.23,0.11-21.34c0.05-2.53-0.55-3.62-3.36-3.58c-10.67,0.15-21.35-0.02-32.02,0.09
		c-10.83,0.12-19.93,9.29-19.93,20.13c-0.03,81.02-0.03,162.03,0,243.05c0,10.48,8.87,19.52,19.44,20.07
		c0.41,0.02,0.81,0.03,1.22,0.03c65.94,0.21,131.89,0.43,197.83,0.59c8.59,0.02,14.86-4.04,19.02-11.5
		c1.68-3.02,3.88-3.95,6.09-2.67c2.18,1.27,2.66,3.9,1.06,6.69c-5.63,9.8-13.83,15.36-25.43,15.36
		c-50.42-0.02-100.83,0.04-151.25-0.03c-15.43-0.02-30.88-0.86-46.3-0.45c-16.18,0.44-30.17-11.76-30.16-30
		c0-6.3-0.01-12.6-0.01-18.9c0-72.88,0.01-145.76-0.01-218.65c0-7.81,1.45-15.16,6.65-21.32c5.59-6.62,12.62-10.35,21.44-10.35
		c10.27,0,20.53-0.01,30.8-0.03c4.77-0.01,4.89-0.06,4.85-4.64c-0.05-5.43,4.71-11.23,10.97-10.99c7.31,0.28,14.63,0.03,21.95,0.08
		c2.01,0.01,3.17-0.35,3.89-2.72c3.28-10.91,9.98-19.11,20.35-24.09C296.08,42.31,297.41,41.99,299.18,41.38z M310.52,122.1
		c20.01,0,40.03,0.01,60.04-0.01c3.93,0,4.38-0.48,4.39-4.4c0.01-11.68,0.01-23.37,0-35.05c0-4.53-0.49-5.04-5.09-5.06
		c-8.43-0.04-16.86,0.01-25.3-0.05c-3.55-0.03-4.32-1.01-5.1-4.34c-0.8-3.42-1.59-6.97-3.2-10.05
		c-5.97-11.43-17.91-16.83-28.44-15.48c-14.07,1.81-24,11.51-26.19,25.29c-0.63,3.99-1.39,4.56-5.42,4.59
		c-8.33,0.04-16.66,0-24.99,0.04c-4.34,0.02-5.05,0.63-5.08,4.91c-0.07,11.58-0.07,23.16,0,34.75c0.03,4.47,0.52,4.86,4.94,4.86
		C270.9,122.1,290.71,122.1,310.52,122.1z"/>
	<path d="M388.95,318.39c0.3,0.96,0.6,1.92,1,3.17c-2.41,1.83-3.28,4.26-1.42,7.43c-2.72-2.59-4.82-2.43-7.46,0.09
		c-1.61,1.53-1.52,2.26-0.4,3.63c1.03,1.26,1.92,2.65,3.08,3.77c0.61,0.59,1.65,0.73,2.5,1.08c-0.13-0.89-0.09-1.87-0.43-2.67
		c-0.61-1.4-1.46-2.7-2.21-4.04c0.28-0.19,0.55-0.39,0.83-0.58c0.48,0.26,1.07,0.42,1.42,0.79c3.93,4.21,7.84,8.42,11.7,12.69
		c1.64,1.81,3.11,1.42,4.62-0.08c4.16-4.16,8.33-8.32,12.49-12.5c2.89-2.9,4.56-3.13,8.03-1.01c6.62,4.04,13.63,7.11,21.29,8.58
		c2.49,0.48,3.93,1.87,3.91,4.59c-0.03,6.3,0.08,12.6-0.02,18.9c-0.05,2.76,1.04,3.87,3.78,3.8c3.96-0.11,7.93,0.01,11.89-0.04
		c3.53-0.04,3.95-0.49,3.97-4.15c0.03-5.89-0.01-11.79,0.03-17.68c0.03-3.68,1.07-4.73,4.66-5.52c7.28-1.62,14.08-4.43,20.38-8.44
		c3.3-2.1,5.34-1.93,8.13,0.82c4.19,4.13,8.39,8.26,12.47,12.5c1.67,1.73,2.93,2.03,4.72,0.1c2.96-3.2,6.11-6.24,9.27-9.25
		c1.6-1.52,1.66-2.72,0.05-4.3c-4.36-4.25-8.63-8.6-12.91-12.93c-2.76-2.79-2.99-4.22-0.96-7.47c4.23-6.76,7.17-14.05,9.01-21.79
		c0.67-2.84,2.4-4.03,5.22-4.02c6.1,0.02,12.2-0.11,18.29,0.06c2.61,0.07,3.44-1.07,3.44-3.37c0-4.17-0.03-8.33,0.01-12.5
		c0.03-2.57-1.23-3.68-3.73-3.68c-5.89,0.01-11.79-0.11-17.68-0.02c-3.18,0.05-5.04-0.96-5.81-4.36
		c-1.75-7.76-4.85-15.02-9.19-21.72c-0.3-0.47-0.68-1.26-0.49-1.62c1.33-2.58,2.45-5.38,4.3-7.54c3.03-3.53,6.49-6.7,9.9-9.89
		c2.04-1.9,2.45-3.35,0.09-5.41c-2.97-2.59-5.75-5.44-8.38-8.39c-2.12-2.38-3.67-1.99-5.66,0.13c-3.81,4.07-7.81,7.96-11.72,11.93
		c-3.12,3.16-4.29,3.28-8.21,1.01c-6.5-3.78-13.21-7-20.72-8.35c-2.82-0.51-4.61-2.2-4.53-5.52c0.15-6.09-0.04-12.2,0.06-18.29
		c0.04-2.62-0.94-3.63-3.6-3.53c-4.26,0.16-8.54,0.13-12.8,0.01c-2.4-0.07-3.27,0.97-3.25,3.25c0.05,6.1,0.02,12.2-0.01,18.29
		c-0.02,3.65-1.21,5.18-4.81,5.85c-7.49,1.4-14.24,4.57-20.66,8.53c-3.1,1.91-4.65,1.85-7.25-0.72c-4.41-4.35-8.8-8.72-13.13-13.14
		c-1.5-1.54-2.66-1.77-4.25-0.05c-2.75,2.96-5.7,5.74-8.54,8.62c-3,3.04-2.98,3.06,0.12,6.17c3.87,3.88,7.75,7.75,11.6,11.65
		c3.12,3.16,3.32,4.18,1.01,7.91c-4.1,6.6-7.1,13.65-8.71,21.24c-0.6,2.83-2.19,3.91-4.9,3.9c-5.89-0.01-11.79-0.01-17.68,0.04
		c-4.09,0.04-4.52,0.52-4.54,4.59c-0.02,3.86,0.08,7.73-0.03,11.58c-0.07,2.46,0.81,3.44,3.36,3.38c6.2-0.13,12.4-0.06,18.6-0.03
		c2.46,0.01,4.39,0.94,4.97,3.54c1.78,7.98,4.72,15.47,9.13,22.37c0.32,0.49,0.45,1.1,0.83,2.03c-2.06,0.11-4.38-0.44-5.53,0.48
		c-1.12,0.9-1.03,3.3-1.43,4.89c-1.03-0.35-2.23-0.76-3.44-1.17c0.5,1.28,0.96,2.58,1.5,3.84c0.27,0.63,0.68,1.19,1.22,2.11
		c-2.21-1.49-4.08-2.75-5.95-4c0.11-0.28,0.14-0.69,0.34-0.83c4.45-2.97,3.91-6.35,1.48-10.52c-1.91-3.28-3-7.06-4.22-10.7
		c-0.81-2.43-1.98-3.57-4.75-3.4c-4.15,0.27-8.33,0.11-12.5,0.06c-7.28-0.09-12.09-3.68-11.84-11.78c0.14-4.47,0.13-8.95,0-13.42
		c-0.21-7.33,4.97-11.42,11.14-11.05c4.76,0.29,9.56,0.16,14.32-0.04c0.99-0.04,2.4-1,2.81-1.91c2.5-5.52,4.85-11.12,7.01-16.79
		c0.34-0.89-0.22-2.56-0.94-3.33c-3.44-3.7-7.13-7.18-10.64-10.82c-4.24-4.4-4.27-9.61-0.05-14.04c3.57-3.75,7.25-7.39,10.97-10.99
		c4.58-4.44,10.01-4.48,14.59-0.06c3.51,3.38,6.94,6.85,10.29,10.39c1.49,1.57,2.67,1.71,4.72,0.74c4.91-2.34,9.99-4.34,15.09-6.27
		c1.89-0.72,2.84-1.65,2.81-3.72c-0.07-4.98-0.05-9.96,0.01-14.94c0.08-6.36,3.19-9.52,9.59-9.63c5.39-0.1,10.77-0.09,16.16,0
		c6.44,0.11,9.58,3.33,9.69,9.86c0.08,4.88,0.1,9.76,0.03,14.64c-0.03,2.21,1.02,3.12,3.02,3.87c5.11,1.92,10.15,4.03,15.1,6.32
		c1.77,0.82,2.8,0.84,4.19-0.63c3.4-3.61,7-7.03,10.53-10.52c4.45-4.41,10.13-4.45,14.55-0.09c3.6,3.55,7.2,7.11,10.75,10.71
		c4.31,4.38,4.33,10.23,0.05,14.61c-3.34,3.41-6.69,6.82-10.13,10.12c-1.59,1.52-1.99,2.71-0.9,4.95
		c2.38,4.89,4.32,10.01,6.19,15.13c0.69,1.88,1.63,2.55,3.53,2.52c4.98-0.07,9.96-0.04,14.94-0.02c6.1,0.03,10.24,4.2,10.26,10.33
		c0.02,4.98-0.09,9.96,0.03,14.94c0.16,6.97-4.68,10.67-10.83,10.88c-4.87,0.17-9.76,0.08-14.63,0.02
		c-1.77-0.02-2.66,0.57-3.31,2.34c-1.89,5.11-3.86,10.22-6.22,15.12c-1.02,2.13-0.59,3.34,0.84,4.76c3.18,3.14,6.31,6.34,9.47,9.5
		c5.24,5.24,5.28,10.71,0.09,15.9c-3.37,3.37-6.71,6.78-10.14,10.1c-4.7,4.54-10.01,4.45-14.73-0.18
		c-3.46-3.4-6.99-6.73-10.32-10.26c-1.39-1.47-2.53-1.52-4.26-0.73c-4.96,2.26-9.92,4.61-15.07,6.38c-2.39,0.82-2.99,1.98-2.98,4.13
		c0.03,4.68,0.04,9.35-0.02,14.03c-0.1,6.98-3.37,10.24-10.28,10.28c-5.29,0.03-10.57,0.07-15.86-0.02c-5.76-0.1-9.21-3.59-9.3-9.37
		c-0.08-5.08-0.05-10.16-0.05-15.25c0-1.94-0.65-2.97-2.72-3.72c-5.22-1.89-10.3-4.17-15.37-6.46c-1.73-0.78-2.96-0.77-4.32,0.64
		c-3.46,3.58-7,7.07-10.55,10.56c-4.48,4.39-9.77,4.4-14.23,0.06c-2.25-2.19-4.61-4.29-6.66-6.66c-1.09-1.26-1.55-3.06-2.44-4.52
		c-0.89-1.46-1.86-2.9-2.96-4.2c-2.68-3.17-3.19-4.7-0.75-7.69C382.62,324.04,385.93,321.34,388.95,318.39z"/>
	<path d="M112.09,223.75c2.01,3.54,4.59,3.74,8.12,1.8c0,1.71,0.01,2.88,0,4.05c-0.35,24.59-0.63,49.19-1.12,73.78
		c-0.07,3.56,1.05,5.5,4.1,7.52c9.51,6.27,15.74,15.08,17.87,26.43c0.63,3.36,0.93,6.81,1.03,10.23c0.04,1.5-0.81,3.03-1.22,4.55
		c-0.23,0.83-0.68,1.72-0.56,2.52c0.57,3.77-0.95,6.65-3.4,9.32c-1.06,1.16-1.79,2.65-2.58,4.04c-1.51,2.64-2.97,5.32-4.48,8.04
		c-4.69-3.22-7.4-1.44-8.86,4.85c-2.09,0.41-3.82,0.74-5.54,1.07c-1.52,0.3-4.64-3.56-4.65-6c-0.01-4.17,0.14-8.33,0.23-12.5
		c0.08-3.96,0.09-7.93,0.28-11.89c0.11-2.24-0.9-3.16-3-3.22c-5.38-0.15-10.77-0.28-16.15-0.48c-2.42-0.09-3.08,1.06-3.09,3.35
		c-0.03,8.54-0.22,17.07-0.38,25.6c-0.02,1.12-0.09,2.24-0.25,3.34c-0.56,3.69-3.06,5.12-6.34,3.39
		c-11.39-5.99-19.39-14.83-22.64-27.53c-4.79-18.76,3.55-36.95,18.96-46.07c2.28-1.35,3.12-2.93,3.13-5.6
		c0.09-17.58,0.37-35.17,0.58-52.75c0.02-1.31,0-2.63,0-3.89c1.03-0.32,1.85-0.57,2.9-0.89c-1.12-2.31-2.15-4.43-3.17-6.55
		c0.4-0.27,0.79-0.55,1.19-0.82c0.88,0.93,1.68,1.94,2.65,2.75c0.84,0.7,1.88,1.17,2.83,1.74c-0.23-1.04-0.17-2.32-0.77-3.06
		c-1.31-1.63-3.08-2.87-4.41-4.49c-0.68-0.82-1.11-2.1-1.12-3.17c-0.09-7.93-0.09-15.86,0.01-23.79c0.03-2.16-0.75-3.33-2.54-4.65
		c-13.25-9.67-21.39-21.99-19.69-39.23c1.64-16.61,10.75-27.73,25.37-34.85c2.72-1.33,5.57,0.99,5.58,4.59
		c0.03,9.05-0.01,18.09-0.01,27.14c0,4.23,0.01,4.25,4.11,4.27c4.68,0.02,9.36-0.17,14.02,0.1c3.19,0.18,4.03-1.09,4.01-4.02
		c-0.06-8.74,0.37-17.49,0.04-26.22c-0.23-6,4.14-6.45,7.84-4.45c8.56,4.63,15.24,11.2,19.08,20.13c5.78,13.44,5.04,26.7-2.82,39.2
		c-1.64,2.61-4.38,4.53-6.61,6.76c-0.5,0.5-1.19,0.91-1.47,1.51c-1.03,2.25-2.05,4.01-4.45,1.2c-0.25-0.3-1.07-0.11-1.62-0.15
		c-0.02,0.56-0.18,1.15-0.02,1.66c0.22,0.7,0.67,1.32,1.06,2.03c-0.5,0.14-0.72,0.29-0.87,0.23c-1.07-0.39-2.13-0.83-3.19-1.25
		c0.1,1.01,0.38,2.06,0.24,3.03c-0.11,0.77-0.57,1.76-1.19,2.15c-3.68,2.33-3.7,2.28-1.54,6.37c0.73,1.39,1.39,2.81,2.09,4.24
		c-2.06,0.09-3.15-0.84-3.81-2.93c-0.45-1.42-0.36-3.68-2.84-3.73c-0.08,0-0.16-0.11-0.23-0.18c-1.55-1.71-0.15-10.52,1.92-11.78
		c1.9-1.15,3.98-2.03,5.8-3.29c12.59-8.72,17.22-21.89,13.9-36.5c-1.51-6.63-5.12-12.32-10.48-16.72c-0.6-0.49-1.32-0.83-2.44-1.52
		c-0.19,1.71-0.44,2.97-0.45,4.23c-0.06,7.52-0.04,15.04-0.09,22.57c-0.03,4.26-1.36,5.78-5.68,5.74
		c-9.55-0.09-19.1-0.35-28.65-0.65c-3.05-0.1-4.41-1.82-4.37-5.41c0.09-7.52,0.31-15.04,0.42-22.56c0.02-1.23-0.3-2.47-0.52-4.21
		c-5.37,3.45-8.59,7.89-11.03,12.94c-8.5,17.57,0.54,37.19,16.19,44.42c2.41,1.11,3.72,2.97,3.66,5.77
		c-0.14,6.2-0.06,12.4-0.36,18.59c-0.08,1.59-1.24,3.14-1.91,4.7c-0.34-0.08-0.68-0.15-1.02-0.23c0.28,0.93,0.57,1.85,0.85,2.76
		c-3.33,3.21-3.27,4.38-0.36,8.2c0.96,1.26,1.77,3.04,1.77,4.58c0.03,21.75-0.1,43.51-0.17,65.26c-0.01,2.71-0.99,4.51-3.6,5.72
		c-8.79,4.07-15.04,10.71-18.12,19.89c-4.53,13.47-0.87,25.11,8.76,35.14c0.79,0.82,1.88,1.34,3.37,2.37
		c0.09-1.74,0.18-2.8,0.2-3.87c0.12-7.42,0.11-14.84,0.39-22.25c0.2-5.35,1.42-6.34,6.63-6.33c8.74,0.01,17.48,0.02,26.22,0.05
		c4.12,0.02,5.55,1.39,5.56,5.45c0.02,7.83-0.05,15.65-0.03,23.48c0,1.14,0.27,2.29,0.47,3.94c5.54-3.85,9.27-8.47,11.58-14.07
		c6.94-16.81-0.09-35.18-16.02-43.1c-2.76-1.37-3.93-3.22-3.9-6.45c0.2-25.82,0.21-51.64,0.32-77.46
		C111.59,229.12,111.91,226.43,112.09,223.75z"/>
	<path d="M278.07,173.64c-21.25,0-42.49,0.01-63.74-0.01c-3.64,0-5.75-1.4-5.97-3.84c-0.24-2.55,1.3-4.45,3.95-4.82
		c0.7-0.1,1.42-0.05,2.13-0.05c42.59,0,85.19,0,127.78,0c4.02,0,5.71,1.26,5.76,4.2c0.05,2.91-1.65,4.44-5.26,4.49
		c-5.39,0.07-10.78,0.02-16.16,0.02C310.4,173.64,294.23,173.64,278.07,173.64z"/>
	<path d="M278.39,204.87c-21.65,0-43.29,0-64.94-0.01c-3.52,0-5.02-1.16-5.1-3.81c-0.07-2.3,1.02-3.67,3.31-3.95
		c1.1-0.13,2.23-0.11,3.35-0.11C256.98,197,298.95,197,340.92,197c1.22,0,2.44,0,3.66,0.09c2.36,0.18,3.42,1.58,3.39,3.86
		c-0.04,2.23-1.07,3.68-3.41,3.88c-1.01,0.09-2.03,0.05-3.05,0.05C320.47,204.88,299.43,204.88,278.39,204.87z"/>
	<path d="M258.89,299.95c-14.93,0-29.86,0.04-44.8-0.06c-1.51-0.01-3.24-0.48-4.47-1.32c-2.11-1.44-1.85-4.99,0.45-6.1
		c1.57-0.76,3.48-1.15,5.24-1.15c29.25-0.07,58.51-0.05,87.76-0.03c1.2,0,2.44,0.1,3.6,0.4c2.3,0.61,3.33,2.22,3,4.58
		c-0.34,2.37-1.89,3.58-4.17,3.64c-4.06,0.11-8.13,0.04-12.19,0.04C281.85,299.95,270.37,299.95,258.89,299.95z"/>
	<path d="M305.56,236.61c-5.27,0-10.92,0-16.58,0c-25,0-50-0.01-75,0c-2.44,0-4.8-0.19-5.54-3.1c-0.63-2.48,0.61-4.43,3.17-5
		c1.17-0.26,2.42-0.25,3.63-0.25c26.32-0.02,52.64-0.03,78.96-0.04c3.41,0,6.83-0.08,10.23,0.09c0.79,0.04,2.01,0.84,2.17,1.5
		c0.16,0.68-0.54,2.02-1.21,2.35c-1.24,0.61-3.18,0.6-2.51,2.57C303.17,235.62,304.74,236.08,305.56,236.61z"/>
	<path d="M259.18,260.03c15.23,0,30.46,0.03,45.69-0.03c2.58-0.01,4.48,0.73,4.88,3.44c0.34,2.28-0.52,4.04-3.1,4.34
		c-1.2,0.14-2.43,0.12-3.65,0.12c-29.24,0.01-58.48,0-87.72,0c-0.81,0-1.63,0.01-2.44-0.03c-3.21-0.15-4.66-1.41-4.47-4.07
		c0.19-2.75,1.92-3.79,4.51-3.78c6.7,0.02,13.4,0,20.1,0C241.72,260.03,250.45,260.03,259.18,260.03z"/>
	<path d="M259.49,323.33c15.03,0,30.07-0.01,45.1,0.01c3.66,0.01,5.21,1.3,5.08,4.11c-0.09,2.07-1.04,3.51-3.27,3.69
		c-1.31,0.11-2.64,0.11-3.96,0.11c-29.05,0.01-58.11,0.01-87.16,0c-1.32,0-2.67,0.07-3.95-0.19c-2.05-0.42-3.42-1.91-2.87-3.92
		c0.38-1.39,1.68-2.77,2.94-3.59c0.87-0.57,2.37-0.23,3.58-0.23C229.82,323.33,244.66,323.33,259.49,323.33z"/>
	<path d="M599.76,231.53c0.53,7.44-6.04,14.84-14.79,14.82c-8.43-0.02-15.04-6.72-14.95-15.13c0.09-8.62,7.05-14.92,14.96-14.92
		C592.52,216.29,600.2,222.33,599.76,231.53z M584.83,224.9c-3.81,0.03-6.54,2.71-6.57,6.46c-0.03,3.82,2.9,6.74,6.74,6.72
		c3.69-0.02,6.89-3.17,6.85-6.74C591.81,227.71,588.71,224.87,584.83,224.9z"/>
	<path d="M150.75,419.08c-7.64,0.19-11.67-5.48-11.66-11.37c0-5.74,4.33-11.23,11.49-11.36c7.41-0.13,11.82,6.57,11.7,11.5
		C162.14,413.53,157.58,419.43,150.75,419.08z M155.04,407.81c-1.97-1.54-3-2.97-4.22-3.16c-1.89-0.3-3.18,1-3.16,3.11
		c0.01,2.06,1.21,3.46,3.12,3.18C152.01,410.76,153.05,409.33,155.04,407.81z"/>
	<path d="M454.56,56.24c-3.1-1.83-5.77-3.41-8.45-4.98c-2.99-1.76-3.96-3.73-2.83-5.75c1.33-2.37,3.96-3.01,6.85-1.39
		c4.94,2.77,9.84,5.62,14.66,8.59c3.56,2.19,3.4,5.74-0.23,7.86c-4.81,2.81-9.6,5.63-14.45,8.35c-1.02,0.57-2.54,1.32-3.36,0.95
		c-1.51-0.7-3.39-1.97-3.76-3.36c-0.29-1.12,1.12-3.14,2.31-4.09c2.04-1.63,4.51-2.69,6.76-4.07
		C452.85,57.86,453.5,57.14,454.56,56.24z"/>
	<path d="M328.9,299.95c-3.24,0-6.48,0.03-9.72-0.01c-2.97-0.04-4.93-1.69-5-4.14c-0.08-3.02,2.06-4.29,4.45-4.37
		c6.98-0.23,13.97-0.21,20.95,0c2.74,0.08,4.62,2.32,4.49,4.45c-0.14,2.32-2.27,4.03-5.14,4.06
		C335.58,299.97,332.24,299.95,328.9,299.95z"/>
	<path d="M329.27,236.6c-3.45,0-6.9,0.05-10.34-0.02c-2.48-0.05-4.37-0.97-4.53-3.83c-0.15-2.63,1.27-4.32,4.28-4.39
		c6.99-0.15,13.99-0.14,20.98-0.01c2.92,0.05,4.59,1.89,4.48,4.32c-0.11,2.43-1.8,3.86-4.83,3.92
		C335.96,236.65,332.62,236.6,329.27,236.6z"/>
	<path d="M329.02,331.23c-3.54,0-7.09,0.06-10.63-0.03c-2.79-0.07-4.5-1.64-4.34-3.98c0.19-2.69,1.85-3.88,4.48-3.88
		c6.98,0.01,13.97-0.04,20.95,0.03c2.85,0.03,4.37,1.52,4.26,3.99c-0.12,2.77-1.78,3.88-4.41,3.87
		C335.9,331.22,332.46,331.23,329.02,331.23z"/>
	<path d="M329.01,267.87c-3.55,0-7.09,0.03-10.64-0.01c-2.51-0.03-4.11-1.19-4-3.87c0.11-2.5,1.48-3.92,4.05-3.93
		c7.09-0.02,14.18-0.04,21.28,0.01c2.63,0.02,4.47,1.73,4.38,4c-0.1,2.58-1.59,3.81-4.14,3.81
		C336.3,267.87,332.66,267.87,329.01,267.87z"/>
	<path d="M250.15,28.86c-0.15,2.26-2.42,3.07-4.61,3.83c-1.9,0.66-3.89,1.05-5.82,1.6c-2.16,0.62-4.82-0.51-5.47-2.55
		c-0.74-2.29,0.18-4.1,2.35-4.89c3.01-1.1,6.09-2.05,9.22-2.74C247.87,23.65,250.14,26.03,250.15,28.86z"/>
	<path d="M232.9,36.02c2.85-0.01,3.72,2.05,4.4,4.25c0.59,1.92,1.07,3.88,1.63,5.82c0.72,2.49-0.38,4.18-2.51,5.17
		c-2.21,1.02-4.14,0.28-4.98-1.95c-1.14-3-2.12-6.1-2.76-9.25C228.21,37.79,230.38,35.96,232.9,36.02z"/>
	<path d="M215.05,40.73c-1.03-1.01-2.96-2.03-3.18-3.34c-0.23-1.37,0.82-3.89,1.96-4.38c3.02-1.29,6.36-1.89,9.63-2.49
		c2.23-0.41,4.11,0.91,4.1,3.02c0,1.5-1.17,3.76-2.44,4.34C222.23,39.19,218.96,39.69,215.05,40.73z"/>
	<path d="M232.82,24.03c-0.11,2.33-1.07,3.87-3.34,4.22c-2.26,0.36-4.05-0.4-4.65-2.83c-0.71-2.84-1.69-5.68-1.81-8.56
		c-0.05-1.23,1.53-3.07,2.82-3.67c1.8-0.84,3.73,0.2,4.43,2.13C231.31,18.16,231.99,21.12,232.82,24.03z"/>
	<path d="M21.99,241.52c-1.85-0.65-3.78-3.71-3.83-5.98c-0.03-1.26,3.7-3.72,6.06-3.37c2.96,0.45,3.36,3.82,2.83,5.43
		C26.51,239.28,23.77,240.25,21.99,241.52z"/>
	<path d="M24.01,225.37c0.59-1.93,4.2-4.26,6.79-3.8c2.75,0.49,1.88,3.37,2.38,5.22c0.42,1.55-3.26,4.15-5.66,3.32
		C25.99,229.58,25.16,227.02,24.01,225.37z"/>
	<path d="M22.84,220.92c-0.5,2.04-3.55,4.11-6.35,3.83c-3.25-0.33-2.06-3.45-2.76-5.31c-0.5-1.33,3.53-4.02,6-3.25
		C21.12,216.62,21.82,219.27,22.84,220.92z"/>
	<path d="M10.8,235.61c-3.29-0.71-2.82-3.56-3.55-5.47c-0.49-1.28,3.11-3.71,5.84-3.45c3.06,0.29,3.04,3.44,3.01,5.4
		C16.04,235.43,12.28,233.96,10.8,235.61z"/>
	<path d="M416.41,300.15c-1.58-3.34-3.59-6.56-4.68-10.06c-7.27-23.3,1.4-47.28,23.87-58.97c22.07-11.48,49.87-4.44,63.56,17.9
		c5.51,9,8.19,18.92,7.01,29.34c-2.1,18.44-11.51,32.1-28.48,40.21c-9.84,4.7-20.22,5.23-30.63,3.19
		c-8.14-1.6-15.37-5.56-21.66-11.12c-1.99-1.75-1.95-3.31,0.15-4.55c2.47-1.46,1.71-2.78,0.23-4.26c-1.21-1.21-2.29-2.95-3.75-3.38
		c-1.44-0.43-3.28,0.49-4.94,0.81C416.86,299.55,416.64,299.85,416.41,300.15z M457.73,234.07c-21.28-0.54-40.33,17.51-40.38,40.02
		c-0.05,24.55,18.39,40.27,40.17,40.54c22.09,0.27,40.27-16.65,40.51-40.2C498.26,251.52,479.14,233.63,457.73,234.07z"/>
	<path d="M413.1,238.52c-5.03-0.05-8.99-4.02-8.85-8.88c0.12-4.46,4.49-8.65,9.02-8.63c4.77,0.02,8.91,4.19,8.89,8.95
		C422.12,234.95,418.29,238.57,413.1,238.52z"/>
	<path d="M403.84,274.25c0.03,4.41-4.51,9.07-8.91,9.15c-4.42,0.08-8.95-4.44-9-9c-0.05-4.79,4-8.86,8.84-8.88
		C399.55,265.51,403.81,269.61,403.84,274.25z"/>
	<path d="M449.11,211.41c0.01-5.08,3.53-8.71,8.51-8.76c4.89-0.06,8.97,3.98,8.95,8.84c-0.03,4.86-4.05,8.73-9.02,8.67
		C452.47,220.1,449.1,216.61,449.11,211.41z"/>
	<path d="M529.13,274.38c-0.03,5.13-3.92,9.19-8.67,9.03c-4.74-0.16-8.69-4.39-8.62-9.23c0.07-4.71,4.01-8.64,8.68-8.65
		C525.56,265.52,529.15,269.22,529.13,274.38z"/>
	<path d="M510.79,319.06c-0.08,5.1-3.75,8.52-9.04,8.42c-4.79-0.09-8.58-4.05-8.48-8.87c0.1-4.82,4-8.54,8.92-8.52
		C507.33,310.12,510.87,313.81,510.79,319.06z"/>
	<path d="M457.89,345.9c-5.2,0.05-8.76-3.47-8.76-8.69c-0.01-5.35,3.13-8.49,8.53-8.52c5.3-0.03,8.97,3.51,8.92,8.59
		C466.53,342.16,462.8,345.85,457.89,345.9z"/>
	<path d="M503.57,221.13c-0.71,2.51-1.43,4.48-1.75,6.51c-0.1,0.65,0.83,1.47,1.3,2.22c0.73-0.55,1.98-1.02,2.08-1.66
		c0.33-2.1,1.23-3.22,3.4-2.82c2.4,0.44,2.04,2.36,2.03,4.07c0,2.07-0.3,3.81-2.9,4.21c-0.55,0.09-1.34,1.35-1.3,2.03
		c0.13,2.35-1.33,2.65-3.05,2.83c-5.24,0.55-9.18-2.4-9.99-7.47c-0.73-4.56,2.58-9.05,7.36-9.88
		C501.69,220.99,502.68,221.13,503.57,221.13z"/>
	<path d="M405.51,316.91c0.9,1.24,1.78,2.5,2.72,3.71c0.49,0.63,1.09,1.16,1.64,1.74c0.39-0.75,1.2-1.56,1.09-2.23
		c-0.34-2.08-1.15-4.09-1.51-6.17c-0.17-1.02,0.26-2.13,0.42-3.21c1.31,0.42,2.66,0.77,3.92,1.31c0.36,0.15,0.55,0.83,0.71,1.3
		c0.79,2.37,2.36,3.22,4.72,2.35c1.91-0.71,2.69,0.23,2.88,1.91c0.41,3.67-1.06,6.58-4.1,8.54c-3.17,2.04-6.57,2.01-9.68-0.1
		c-2.94-1.99-4.21-4.92-4.01-8.39C404.72,317.43,405.11,317.17,405.51,316.91z"/>
	<path class="st0" d="M155.04,407.81c-1.99,1.53-3.03,2.95-4.26,3.13c-1.92,0.28-3.11-1.12-3.12-3.18c-0.01-2.1,1.27-3.4,3.16-3.11
		C152.04,404.84,153.07,406.26,155.04,407.81z"/>
	<path d="M296.15,103.03c-11.59,0-23.17,0-34.76,0c-1.02,0-2.04,0.04-3.05-0.05c-2.3-0.21-3.91-1.47-4.08-3.75
		c-0.18-2.52,1.51-3.82,3.86-4.28c0.59-0.12,1.21-0.12,1.82-0.12c24.29,0,48.58-0.01,72.87,0.02c2.4,0,4.82,0.26,5.26,3.38
		c0.43,3.06-1.18,4.76-4.73,4.78c-9.35,0.06-18.7,0.02-28.05,0.03C302.24,103.03,299.2,103.03,296.15,103.03z"/>
</g>
</svg>
